<?xml version="1.0" encoding="UTF-8"?>
<!DOCTYPE svg PUBLIC "-//W3C//DTD SVG 1.1//EN" "http://www.w3.org/Graphics/SVG/1.1/DTD/svg11.dtd">
<svg xmlns="http://www.w3.org/2000/svg" version="1.1" width="364px" height="367px" style="shape-rendering:geometricPrecision; text-rendering:geometricPrecision; image-rendering:optimizeQuality; fill-rule:evenodd; clip-rule:evenodd" xmlns:xlink="http://www.w3.org/1999/xlink">
<g><path style="opacity:0.97" fill="#4d90ff" d="M 180.5,7.5 C 180.5,48.8333 180.5,90.1667 180.5,131.5C 127.904,132.662 75.2373,132.828 22.5,132C 16.8705,128.916 14.2038,124.082 14.5,117.5C 14.8679,112.695 15.8679,108.029 17.5,103.5C 72.4962,71.258 126.83,39.258 180.5,7.5 Z"/></g>
<g><path style="opacity:0.971" fill="#004ecf" d="M 180.5,7.5 C 183.829,7.26366 186.829,8.09699 189.5,10C 189.167,10.3333 188.833,10.6667 188.5,11C 240.86,41.7384 293.193,72.5717 345.5,103.5C 349.069,111.484 349.236,119.484 346,127.5C 344.577,129.504 342.744,131.004 340.5,132C 287.138,132.82 233.805,132.654 180.5,131.5C 180.5,90.1667 180.5,48.8333 180.5,7.5 Z"/></g>
<g><path style="opacity:0.987" fill="#4d90ff" d="M 52.5,155.5 C 62.8333,155.5 73.1667,155.5 83.5,155.5C 83.5,202.167 83.5,248.833 83.5,295.5C 73.1667,295.5 62.8333,295.5 52.5,295.5C 52.5,248.833 52.5,202.167 52.5,155.5 Z"/></g>
<g><path style="opacity:0.987" fill="#4d90ff" d="M 128.5,155.5 C 138.833,155.5 149.167,155.5 159.5,155.5C 159.5,202.167 159.5,248.833 159.5,295.5C 149.167,295.5 138.833,295.5 128.5,295.5C 128.5,248.833 128.5,202.167 128.5,155.5 Z"/></g>
<g><path style="opacity:0.956" fill="#004dcf" d="M 204.5,155.5 C 215.167,155.5 225.833,155.5 236.5,155.5C 236.5,202.167 236.5,248.833 236.5,295.5C 225.833,295.5 215.167,295.5 204.5,295.5C 204.5,248.833 204.5,202.167 204.5,155.5 Z"/></g>
<g><path style="opacity:0.956" fill="#004dcf" d="M 280.5,155.5 C 291.167,155.5 301.833,155.5 312.5,155.5C 312.5,202.167 312.5,248.833 312.5,295.5C 301.833,295.5 291.167,295.5 280.5,295.5C 280.5,248.833 280.5,202.167 280.5,155.5 Z"/></g>
<g><path style="opacity:0.958" fill="#4c8ffe" d="M 190.5,314.5 C 184.013,315.328 177.346,315.828 170.5,316C 168,317.167 166.167,319 165,321.5C 163.419,327.723 163.085,334.056 164,340.5C 165.688,344.685 168.521,347.685 172.5,349.5C 127.499,349.667 82.4988,349.5 37.5,349C 34.3333,347.833 32.1667,345.667 31,342.5C 30.0687,334.728 30.4021,327.061 32,319.5C 34.194,316.819 37.0273,315.319 40.5,315C 90.4989,314.5 140.499,314.333 190.5,314.5 Z"/></g>
<g><path style="opacity:0.965" fill="#004ecf" d="M 190.5,314.5 C 235.168,314.333 279.835,314.5 324.5,315C 329.26,316.096 332.427,318.929 334,323.5C 334.667,329.5 334.667,335.5 334,341.5C 332.807,345.36 330.307,347.86 326.5,349C 275.168,349.5 223.834,349.667 172.5,349.5C 168.521,347.685 165.688,344.685 164,340.5C 163.085,334.056 163.419,327.723 165,321.5C 166.167,319 168,317.167 170.5,316C 177.346,315.828 184.013,315.328 190.5,314.5 Z"/></g>
</svg>
